<svg width="320" height="78" viewBox="0 0 320 78" fill="none" xmlns="http://www.w3.org/2000/svg">
<g id="Component 1">
<g id="Group 1">
<path id="Vector 1" d="M46.8745 42.7314C46.8745 42.7314 49.2981 45.3523 53.0436 45.3523C56.7892 45.3523 58.5518 42.7314 58.5518 42.7314" stroke="black"/>
<path id="V" d="M42.9755 57.829C38.8258 53.2825 31.4517 31.8112 31.0111 26.5695C30.5704 21.3278 43.4161 18.9254 40.3584 24.0815C37.3007 29.2375 46.037 49.4197 48.8763 51.1517C51.7156 52.8837 53.892 53.1002 56.7312 51.1517C59.5705 49.2032 67.4332 29.4559 64.8123 24.0815C62.1914 18.707 74.6355 20.891 73.9745 26.5695C73.3135 32.248 66.5634 53.932 62.6321 57.829C58.7007 61.726 47.1252 62.3755 42.9755 57.829Z" fill="#27AE60"/>
<path id="Left Eye" d="M49.2388 30.5008C49.2388 32.1505 47.8885 33.4952 46.2136 33.4952C44.5386 33.4952 43.1884 32.1505 43.1884 30.5008C43.1884 28.8511 44.5386 27.5063 46.2136 27.5063C47.8885 27.5063 49.2388 28.8511 49.2388 30.5008Z" stroke="black" stroke-linejoin="round"/>
<path id="Left Eyeball" d="M47.5355 30.5008C47.5355 31.2246 46.9436 31.8113 46.2136 31.8113C45.4835 31.8113 44.8916 31.2246 44.8916 30.5008C44.8916 29.7771 45.4835 29.1904 46.2136 29.1904C46.9436 29.1904 47.5355 29.7771 47.5355 30.5008Z" fill="#27AE60"/>
<path id="Right eye" d="M61.5769 30.5008C61.5769 32.1505 60.2266 33.4952 58.5517 33.4952C56.8768 33.4952 55.5265 32.1505 55.5265 30.5008C55.5265 28.8511 56.8768 27.5063 58.5517 27.5063C60.2266 27.5063 61.5769 28.8511 61.5769 30.5008Z" stroke="black" stroke-linejoin="round"/>
<path id="Right Eyeball" d="M59.3736 30.5008C59.3736 30.9443 59.0098 31.3113 58.5517 31.3113C58.0936 31.3113 57.7297 30.9443 57.7297 30.5008C57.7297 30.0574 58.0936 29.6904 58.5517 29.6904C59.0098 29.6904 59.3736 30.0574 59.3736 30.5008Z" stroke="black" stroke-linejoin="round"/>
</g>
<path id="IPUL JHA" d="M77.1879 37.076C77.1879 35.948 77.6079 35.072 78.4479 34.448C79.2879 33.8 80.4759 33.476 82.0119 33.476V55.724C82.0119 56.876 81.5919 57.764 80.7519 58.388C79.9119 59.012 78.7239 59.324 77.1879 59.324V37.076ZM88.2045 35.996C88.2045 35.372 88.4325 34.856 88.8885 34.448C89.3445 34.016 89.9205 33.8 90.6165 33.8H100.624C102.352 33.8 103.876 34.148 105.196 34.844C106.54 35.516 107.572 36.488 108.292 37.76C109.036 39.008 109.408 40.46 109.408 42.116C109.408 43.796 109.048 45.272 108.328 46.544C107.608 47.792 106.588 48.764 105.268 49.46C103.948 50.132 102.4 50.468 100.624 50.468H93.0285V55.76C93.0285 56.912 92.6085 57.8 91.7685 58.424C90.9525 59.024 89.7645 59.324 88.2045 59.324V35.996ZM100.624 46.292C101.896 46.292 102.88 45.92 103.576 45.176C104.272 44.432 104.62 43.4 104.62 42.08C104.62 40.784 104.26 39.776 103.54 39.056C102.844 38.336 101.872 37.976 100.624 37.976H93.0285V46.292H100.624ZM124.584 59.324C122.568 59.324 120.744 58.916 119.112 58.1C117.504 57.284 116.244 56.156 115.332 54.716C114.42 53.276 113.964 51.644 113.964 49.82V37.04C113.964 35.888 114.372 35.012 115.188 34.412C116.004 33.788 117.204 33.476 118.788 33.476V49.82C118.788 51.428 119.316 52.712 120.372 53.672C121.428 54.632 122.832 55.112 124.584 55.112C126.336 55.112 127.74 54.632 128.796 53.672C129.852 52.712 130.38 51.428 130.38 49.82V37.04C130.38 35.864 130.788 34.976 131.604 34.376C132.42 33.776 133.62 33.476 135.204 33.476V49.82C135.204 51.644 134.748 53.276 133.836 54.716C132.924 56.156 131.652 57.284 130.02 58.1C128.412 58.916 126.6 59.324 124.584 59.324ZM143.026 59C142.33 59 141.73 58.748 141.226 58.244C140.746 57.74 140.506 57.14 140.506 56.444V37.04C140.506 35.84 140.902 34.952 141.694 34.376C142.486 33.776 143.698 33.476 145.33 33.476V54.824H155.05C156.178 54.824 157.03 55.184 157.606 55.904C158.182 56.6 158.47 57.632 158.47 59H143.026ZM181.969 59.324C180.145 59.324 178.501 58.976 177.037 58.28C175.573 57.584 174.421 56.636 173.581 55.436C172.765 54.212 172.357 52.844 172.357 51.332C172.357 50.324 172.777 49.616 173.617 49.208C174.481 48.8 175.681 48.596 177.217 48.596C177.145 49.028 177.109 49.58 177.109 50.252C177.109 51.812 177.517 53.012 178.333 53.852C179.173 54.692 180.385 55.112 181.969 55.112C183.529 55.112 184.729 54.668 185.569 53.78C186.409 52.868 186.829 51.572 186.829 49.892V37.976H183.193C182.065 37.976 181.225 37.64 180.673 36.968C180.121 36.272 179.845 35.216 179.845 33.8H189.313C189.961 33.8 190.513 34.016 190.969 34.448C191.425 34.856 191.653 35.372 191.653 35.996V49.892C191.653 51.692 191.233 53.312 190.393 54.752C189.577 56.168 188.425 57.284 186.937 58.1C185.473 58.916 183.817 59.324 181.969 59.324ZM196.915 37.04C196.915 35.888 197.323 35.012 198.139 34.412C198.955 33.788 200.155 33.476 201.739 33.476V44.204H212.503V37.04C212.503 35.864 212.911 34.976 213.727 34.376C214.567 33.776 215.767 33.476 217.327 33.476V55.76C217.327 56.912 216.907 57.8 216.067 58.424C215.251 59.024 214.063 59.324 212.503 59.324V48.38H201.739V55.76C201.739 56.912 201.319 57.8 200.479 58.424C199.663 59.024 198.475 59.324 196.915 59.324V37.04ZM225.375 59.324C224.343 59.204 223.527 58.844 222.927 58.244C222.351 57.644 222.063 56.888 222.063 55.976C222.063 55.28 222.231 54.56 222.567 53.816L230.811 35.06C231.267 34.004 232.059 33.476 233.187 33.476C234.291 33.476 235.071 34.004 235.527 35.06L243.771 53.816C244.107 54.608 244.275 55.328 244.275 55.976C244.275 56.888 243.975 57.644 243.375 58.244C242.799 58.844 241.983 59.204 240.927 59.324L237.903 52.484H228.435L225.375 59.324ZM236.427 48.38L232.467 38.516L232.035 38.696L232.899 40.928L229.875 48.38H236.427Z" fill="#27AE60"/>
</g>
</svg>
