<svg width="126" height="119" viewBox="0 0 126 119" fill="none" xmlns="http://www.w3.org/2000/svg">
<path d="M46.4675 64.1714C46.4675 64.1714 53.5618 71.9106 64.5256 71.9106C75.4895 71.9106 80.6489 64.1714 80.6489 64.1714" stroke="black"/>
<path d="M35.0544 108.754C22.9074 95.3283 1.32235 31.9247 0.0324851 16.4464C-1.25738 0.967999 36.3443 -6.12625 27.3938 9.09936C18.4434 24.325 44.016 83.9217 52.3271 89.0362C60.6382 94.1507 67.0089 94.79 75.32 89.0362C83.6311 83.2824 106.646 24.9699 98.9747 9.09936C91.3029 -6.7712 127.729 -0.321848 125.794 16.4464C123.859 33.2146 104.1 97.2462 92.5928 108.754C81.0851 120.262 47.2014 122.179 35.0544 108.754Z" fill="#27AE60"/>
<circle cx="44.5328" cy="28.0552" r="9.81891" stroke="black" stroke-linejoin="round"/>
<path d="M48.4024 28.0551C48.4024 30.1923 46.6699 31.9247 44.5328 31.9247C42.3957 31.9247 40.6632 30.1923 40.6632 28.0551C40.6632 25.918 42.3957 24.1855 44.5328 24.1855C46.6699 24.1855 48.4024 25.918 48.4024 28.0551Z" fill="#27AE60"/>
<circle cx="80.649" cy="28.0552" r="9.81891" stroke="black" stroke-linejoin="round"/>
<path d="M84.0186 28.0551C84.0186 29.9161 82.51 31.4247 80.649 31.4247C78.788 31.4247 77.2794 29.9161 77.2794 28.0551C77.2794 26.1942 78.788 24.6855 80.649 24.6855C82.51 24.6855 84.0186 26.1942 84.0186 28.0551Z" stroke="black" stroke-linejoin="round"/>
</svg>
