<svg width="210" height="40" viewBox="0 0 210 40" fill="none" xmlns="http://www.w3.org/2000/svg">
<path d="M41.1879 15.076C41.1879 13.948 41.6079 13.072 42.4479 12.448C43.2879 11.8 44.4759 11.476 46.0119 11.476V33.724C46.0119 34.876 45.5919 35.764 44.7519 36.388C43.9119 37.012 42.7239 37.324 41.1879 37.324V15.076ZM52.2045 13.996C52.2045 13.372 52.4325 12.856 52.8885 12.448C53.3445 12.016 53.9205 11.8 54.6165 11.8H64.6245C66.3525 11.8 67.8765 12.148 69.1965 12.844C70.5405 13.516 71.5725 14.488 72.2925 15.76C73.0365 17.008 73.4085 18.46 73.4085 20.116C73.4085 21.796 73.0485 23.272 72.3285 24.544C71.6085 25.792 70.5885 26.764 69.2685 27.46C67.9485 28.132 66.4005 28.468 64.6245 28.468H57.0285V33.76C57.0285 34.912 56.6085 35.8 55.7685 36.424C54.9525 37.024 53.7645 37.324 52.2045 37.324V13.996ZM64.6245 24.292C65.8965 24.292 66.8805 23.92 67.5765 23.176C68.2725 22.432 68.6205 21.4 68.6205 20.08C68.6205 18.784 68.2605 17.776 67.5405 17.056C66.8445 16.336 65.8725 15.976 64.6245 15.976H57.0285V24.292H64.6245ZM88.5842 37.324C86.5682 37.324 84.7442 36.916 83.1122 36.1C81.5042 35.284 80.2442 34.156 79.3322 32.716C78.4202 31.276 77.9642 29.644 77.9642 27.82V15.04C77.9642 13.888 78.3722 13.012 79.1882 12.412C80.0042 11.788 81.2042 11.476 82.7882 11.476V27.82C82.7882 29.428 83.3162 30.712 84.3722 31.672C85.4282 32.632 86.8322 33.112 88.5842 33.112C90.3362 33.112 91.7402 32.632 92.7962 31.672C93.8522 30.712 94.3802 29.428 94.3802 27.82V15.04C94.3802 13.864 94.7882 12.976 95.6042 12.376C96.4202 11.776 97.6202 11.476 99.2042 11.476V27.82C99.2042 29.644 98.7482 31.276 97.8362 32.716C96.9242 34.156 95.6522 35.284 94.0202 36.1C92.4122 36.916 90.6002 37.324 88.5842 37.324ZM107.026 37C106.33 37 105.73 36.748 105.226 36.244C104.746 35.74 104.506 35.14 104.506 34.444V15.04C104.506 13.84 104.902 12.952 105.694 12.376C106.486 11.776 107.698 11.476 109.33 11.476V32.824H119.05C120.178 32.824 121.03 33.184 121.606 33.904C122.182 34.6 122.47 35.632 122.47 37H107.026ZM145.969 37.324C144.145 37.324 142.501 36.976 141.037 36.28C139.573 35.584 138.421 34.636 137.581 33.436C136.765 32.212 136.357 30.844 136.357 29.332C136.357 28.324 136.777 27.616 137.617 27.208C138.481 26.8 139.681 26.596 141.217 26.596C141.145 27.028 141.109 27.58 141.109 28.252C141.109 29.812 141.517 31.012 142.333 31.852C143.173 32.692 144.385 33.112 145.969 33.112C147.529 33.112 148.729 32.668 149.569 31.78C150.409 30.868 150.829 29.572 150.829 27.892V15.976H147.193C146.065 15.976 145.225 15.64 144.673 14.968C144.121 14.272 143.845 13.216 143.845 11.8H153.313C153.961 11.8 154.513 12.016 154.969 12.448C155.425 12.856 155.653 13.372 155.653 13.996V27.892C155.653 29.692 155.233 31.312 154.393 32.752C153.577 34.168 152.425 35.284 150.937 36.1C149.473 36.916 147.817 37.324 145.969 37.324ZM160.915 15.04C160.915 13.888 161.323 13.012 162.139 12.412C162.955 11.788 164.155 11.476 165.739 11.476V22.204H176.503V15.04C176.503 13.864 176.911 12.976 177.727 12.376C178.567 11.776 179.767 11.476 181.327 11.476V33.76C181.327 34.912 180.907 35.8 180.067 36.424C179.251 37.024 178.063 37.324 176.503 37.324V26.38H165.739V33.76C165.739 34.912 165.319 35.8 164.479 36.424C163.663 37.024 162.475 37.324 160.915 37.324V15.04ZM189.375 37.324C188.343 37.204 187.527 36.844 186.927 36.244C186.351 35.644 186.063 34.888 186.063 33.976C186.063 33.28 186.231 32.56 186.567 31.816L194.811 13.06C195.267 12.004 196.059 11.476 197.187 11.476C198.291 11.476 199.071 12.004 199.527 13.06L207.771 31.816C208.107 32.608 208.275 33.328 208.275 33.976C208.275 34.888 207.975 35.644 207.375 36.244C206.799 36.844 205.983 37.204 204.927 37.324L201.903 30.484H192.435L189.375 37.324ZM200.427 26.38L196.467 16.516L196.035 16.696L196.899 18.928L193.875 26.38H200.427Z" fill="#469A4E"/>
<path d="M10.5046 34.1682C6.84809 30.108 -1.38171 13.9945 0.199388 6.53201C1.78049 -0.930448 17.8799 -1.51597 10.5046 2.43672C3.12924 6.38941 12.1494 25.6311 14.6512 27.1779C17.153 28.7246 21.1154 28.9179 23.6172 27.1779C26.119 25.4378 35.0554 6.24306 27.8247 2.43676C20.594 -1.36955 37.0889 -1.22314 37.934 6.53209C38.7791 14.2873 31.2887 30.6881 27.8247 34.1682C24.3607 37.6483 14.161 38.2283 10.5046 34.1682Z" fill="#469A4E"/>
</svg>
